<svg id="Capa_1" enable-background="new 0 0 512 512" height="512" viewBox="0 0 512 512" width="512" xmlns="http://www.w3.org/2000/svg" xmlns:xlink="http://www.w3.org/1999/xlink"><linearGradient id="SVGID_1_" gradientUnits="userSpaceOnUse" x1="256" x2="256" y1="512" y2="0"><stop offset="0" stop-color="#addcff"/><stop offset=".5028" stop-color="#eaf6ff"/><stop offset="1" stop-color="#eaf6ff"/></linearGradient><linearGradient id="SVGID_2_" gradientUnits="userSpaceOnUse" x1="256" x2="256" y1="105" y2="407"><stop offset="0" stop-color="#5558ff"/><stop offset="1" stop-color="#00c0ff"/></linearGradient><g><g><circle cx="256" cy="256" fill="url(#SVGID_1_)" r="256"/></g><g><g><path d="m170.23 335.941c4.91 0 8.882-3.973 8.882-8.882 0-4.91-3.973-8.882-8.882-8.882h-20.818c-4.91 0-8.882 3.973-8.882 8.882s3.973 8.882 8.882 8.882zm-47.465 26.647c0 4.91 3.973 8.883 8.882 8.883h74.112c4.91 0 8.882-3.973 8.882-8.883 0-4.909-3.973-8.882-8.882-8.882h-74.112c-4.91 0-8.882 3.973-8.882 8.882zm118.914 26.647h-127.797c-4.91 0-8.882 3.973-8.882 8.882s3.973 8.882 8.882 8.882h127.797c4.91 0 8.882-3.973 8.882-8.882s-3.972-8.882-8.882-8.882zm28.937-200.954c11.485 0 21.79-4.224 29.796-12.222l55.896-55.896c2.542-2.542 3.305-6.358 1.926-9.68-1.371-3.322-4.615-5.482-8.206-5.482h-91.929c-2.368 0-4.632.946-6.297 2.62l-28.486 28.642c-5.569 5.56-6.792 13.072-3.444 21.139 6.167 14.901 28.035 30.87 50.744 30.879zm123.425 160.281-40.395-30.385h-62.481c-4.91 0-8.882-3.973-8.882-8.882 0-4.91 3.973-8.883 8.882-8.883h43.596l-2.546-17.765h-46.125c-4.91 0-8.882-3.973-8.882-8.882s3.973-8.882 8.882-8.882h43.578l-2.546-17.765h-46.107c-4.91 0-8.882-3.973-8.882-8.882 0-4.91 3.973-8.882 8.882-8.882h43.56l-2.921-20.376c-.608-4.49-2.048-13.976-7.398-21.643-1.778 1.217-15.567 18.711-43.641 18.711-31.192-.009-58.646-21.286-67.155-41.853-4.72-11.358-4.033-22.928 1.396-32.544-7.833-.903-15.936 1.225-21.936 7.216l-43.918 43.925 56.531 56.531c3.47 3.47 3.47 9.091 0 12.56s-9.091 3.469-12.56 0l-55.902-55.902c-11.422 17.2-9.569 40.672 5.583 55.824l121.326 121.326c21.84 21.84 50.882 33.871 81.779 33.871h38.73c17.93 0 32.511-14.581 32.511-32.511 0-10.088-4.84-19.777-12.959-25.927z" fill="url(#SVGID_2_)"/></g></g></g></svg>